<svg width="75" height="75" viewBox="0 0 75 75" fill="none" xmlns="http://www.w3.org/2000/svg">
<g id="Wallet">
<path id="Combined Shape" fill-rule="evenodd" clip-rule="evenodd" d="M24.5704 19.1104C21.5549 19.1104 19.1104 21.5549 19.1104 24.5704V49.1405C19.1104 52.156 21.5549 54.6005 24.5704 54.6005H49.1405C52.156 54.6005 54.6005 52.156 54.6005 49.1405V24.5704C54.6005 21.5549 52.156 19.1104 49.1405 19.1104H24.5704ZM39.586 32.7602C37.3243 32.7602 35.4909 34.5936 35.4909 36.8552C35.4909 39.1169 37.3243 40.9503 39.586 40.9503H45.046C47.3076 40.9503 49.141 39.1169 49.141 36.8552C49.141 34.5936 47.3076 32.7602 45.046 32.7602H39.586Z" fill="#6F6C99"/>
</g>
</svg>
